<svg width="718" height="692" viewBox="0 0 718 692" fill="none" xmlns="http://www.w3.org/2000/svg">
<g opacity="0.7">
<path opacity="0.9" d="M10.5463 262.607C4.72179 343.011 141.973 418.41 317.104 431.015C492.236 443.62 638.93 388.658 644.755 308.254C650.579 227.85 513.329 152.451 338.197 139.846C163.065 127.241 16.3708 182.203 10.5463 262.607Z" stroke="#D2D3F7" stroke-width="2" stroke-miterlimit="10"/>
<path opacity="0.9" d="M22.2065 279.369C19.921 357.979 156.893 425.714 328.142 430.661C499.392 435.608 640.069 375.893 642.355 297.284C644.64 218.674 507.668 150.938 336.419 145.991C165.17 141.044 24.492 200.76 22.2065 279.369Z" stroke="#D2D3F7" stroke-width="2" stroke-miterlimit="10"/>
<path opacity="0.9" d="M334.463 152.142C167.089 154.85 32.4197 219.324 33.6708 296.149C34.9219 372.973 171.62 433.056 338.994 430.348C506.368 427.639 641.038 363.165 639.787 286.341C638.536 209.517 501.838 149.434 334.463 152.142Z" stroke="#D2D3F7" stroke-width="2" stroke-miterlimit="10"/>
<path opacity="0.9" d="M332.666 158.249C169.182 168.616 40.5362 237.862 45.3262 312.915C50.1161 387.968 186.528 440.406 350.012 430.04C513.495 419.673 642.141 350.427 637.351 275.374C632.561 200.321 496.149 147.883 332.666 158.249Z" stroke="#D2D3F7" stroke-width="2" stroke-miterlimit="10"/>
<path opacity="0.9" d="M330.897 164.232C171.3 182.244 48.6674 256.243 56.9904 329.512C65.3133 402.782 201.44 447.576 361.037 429.563C520.635 411.55 643.267 337.551 634.944 264.282C626.621 191.013 490.495 146.219 330.897 164.232Z" stroke="#D2D3F7" stroke-width="2" stroke-miterlimit="10"/>
<path opacity="0.9" d="M329.144 170.328C173.436 195.995 56.8232 274.745 68.6816 346.223C80.54 417.7 216.379 454.837 372.087 429.171C527.794 403.504 644.407 324.754 632.549 253.276C620.691 181.799 484.851 144.662 329.144 170.328Z" stroke="#D2D3F7" stroke-width="2" stroke-miterlimit="10"/>
<path opacity="0.9" d="M327.326 176.504C175.506 209.832 64.9141 293.349 80.3129 363.046C95.7117 432.742 231.27 462.224 383.09 428.897C534.911 395.569 645.502 312.051 630.104 242.355C614.705 172.658 479.147 143.176 327.326 176.504Z" stroke="#D2D3F7" stroke-width="2" stroke-miterlimit="10"/>
<path opacity="0.9" d="M325.537 182.542C177.601 223.519 73.0227 311.785 91.9534 379.689C110.884 447.593 246.156 469.422 394.091 428.445C542.026 387.468 646.605 299.202 627.674 231.298C608.743 163.393 473.472 141.565 325.537 182.542Z" stroke="#D2D3F7" stroke-width="2" stroke-miterlimit="10"/>
<path opacity="0.9" d="M323.678 188.887C179.625 237.545 81.0693 330.589 103.547 396.707C126.024 462.824 261.024 476.978 405.076 428.32C549.129 379.662 647.685 286.618 625.207 220.5C602.73 154.383 467.73 140.229 323.678 188.887Z" stroke="#D2D3F7" stroke-width="2" stroke-miterlimit="10"/>
<path opacity="0.9" d="M321.9 194.919C181.737 251.224 89.1991 349.025 115.212 413.362C141.224 477.7 275.936 484.211 416.099 427.906C556.263 371.6 648.8 273.799 622.787 209.462C596.775 145.124 462.063 138.613 321.9 194.919Z" stroke="#D2D3F7" stroke-width="2" stroke-miterlimit="10"/>
<path opacity="0.9" d="M320.106 200.894C183.826 264.845 97.301 367.401 126.847 429.959C156.393 492.517 290.821 491.388 427.102 427.436C563.382 363.485 649.907 260.929 620.361 198.371C590.815 135.813 456.386 136.943 320.106 200.894Z" stroke="#D2D3F7" stroke-width="2" stroke-miterlimit="10"/>
<path opacity="0.9" d="M318.31 207.172C185.924 278.791 105.427 386.113 138.516 446.884C171.604 507.654 305.748 498.86 438.134 427.241C570.52 355.622 651.017 248.3 617.928 187.529C584.84 126.759 450.696 135.553 318.31 207.172Z" stroke="#D2D3F7" stroke-width="2" stroke-miterlimit="10"/>
<path opacity="0.9" d="M316.492 213.161C187.976 292.433 113.479 404.513 150.098 463.499C186.717 522.484 320.586 506.039 449.101 426.767C577.617 347.494 652.114 235.415 615.495 176.429C578.876 117.444 445.007 133.889 316.492 213.161Z" stroke="#D2D3F7" stroke-width="2" stroke-miterlimit="10"/>
<path opacity="0.9" d="M314.736 219.525C190.117 306.472 121.65 423.319 161.811 480.512C201.972 537.704 335.553 513.584 460.172 426.637C584.792 339.691 653.259 222.844 613.098 165.651C572.937 108.459 439.356 132.579 314.736 219.525Z" stroke="#D2D3F7" stroke-width="2" stroke-miterlimit="10"/>
<path opacity="0.9" d="M312.933 225.629C192.199 320.229 129.746 441.835 173.442 497.243C217.137 552.651 350.434 520.879 471.168 426.278C591.902 331.678 654.354 210.072 610.659 154.664C566.964 99.2558 433.667 131.028 312.933 225.629Z" stroke="#D2D3F7" stroke-width="2" stroke-miterlimit="10"/>
<path opacity="0.9" d="M311.161 231.689C194.312 333.941 137.872 460.3 185.097 513.92C232.323 567.541 365.331 528.117 482.18 425.866C599.028 323.614 655.469 197.255 608.244 143.634C561.018 90.0141 428.01 129.438 311.161 231.689Z" stroke="#D2D3F7" stroke-width="2" stroke-miterlimit="10"/>
<path opacity="0.9" d="M309.382 237.864C196.427 347.775 146.01 478.893 196.771 530.724C247.532 582.555 380.249 535.472 493.204 425.561C606.158 315.65 656.576 184.532 605.815 132.701C555.054 80.8693 422.336 127.952 309.382 237.864Z" stroke="#D2D3F7" stroke-width="2" stroke-miterlimit="10"/>
<path opacity="0.9" d="M307.578 243.994C198.51 361.562 154.114 497.446 208.416 547.498C262.719 597.55 395.156 542.818 504.224 425.25C613.292 307.682 657.688 171.799 603.386 121.746C549.084 71.6937 416.646 126.426 307.578 243.994Z" stroke="#D2D3F7" stroke-width="2" stroke-miterlimit="10"/>
<path opacity="0.9" d="M305.784 250.052C200.599 375.269 162.206 515.901 220.03 564.162C277.853 612.423 409.998 550.038 515.183 424.821C620.368 299.604 658.762 158.972 600.938 110.71C543.114 62.4493 410.969 124.835 305.784 250.052Z" stroke="#D2D3F7" stroke-width="2" stroke-miterlimit="10"/>
<path opacity="0.9" d="M304.018 256.237C202.722 389.115 170.35 534.511 231.712 580.988C293.075 627.465 424.935 557.424 526.23 424.546C627.526 291.668 659.898 146.272 598.536 99.7949C537.173 53.3177 405.313 123.359 304.018 256.237Z" stroke="#D2D3F7" stroke-width="2" stroke-miterlimit="10"/>
<path opacity="0.9" d="M302.223 262.369C204.816 402.905 178.462 553.063 243.361 597.756C308.26 642.449 439.836 564.754 537.243 424.218C634.65 283.682 661.004 133.525 596.105 88.8312C531.206 44.1379 399.631 121.833 302.223 262.369Z" stroke="#D2D3F7" stroke-width="2" stroke-miterlimit="10"/>
<path opacity="0.9" d="M300.311 268.291C206.772 416.465 186.413 571.374 254.838 614.291C323.263 657.209 454.559 571.882 548.098 423.709C641.636 275.536 661.995 120.626 593.571 77.7087C525.146 34.7914 393.849 120.118 300.311 268.291Z" stroke="#D2D3F7" stroke-width="2" stroke-miterlimit="10"/>
</g>
</svg>
